<svg class="w-6 h-6 text-gray-800 dark:text-white"
     aria-hidden="true"
     xmlns="http://www.w3.org/2000/svg"
     width="24"
     height="24"
     fill="currentColor"
     viewBox="0 0 100 100">

    <g id="person-plus">
        <path fill-rule="evenodd" d="M37.5 16.67a16.67 16.67 0 1 0 0 33.33 16.67 16.67 0 0 0 0-33.33ZM22.22 62.5a16.67 16.67 0 0 0-16.67 16.67v4.17a8.33 8.33 0 0 0 8.33 8.33h33.33a8.33 8.33 0 0 0 8.33-8.33v-4.17a16.67 16.67 0 0 0-16.67-16.67H22.22Zm33.34-4.17a4.17 4.17 0 0 1 4.17-4.17h4.17v-4.17a4.17 4.17 0 1 1 8.33 0v4.17h4.17a4.17 4.17 0 1 1 0 8.33h-4.17v4.17a4.17 4.17 0 1 1-8.33 0v-4.17h-4.17a4.17 4.17 0 0 1-4.17-4.17Z" clip-rule="evenodd"/>
    </g>
</svg>